PathFileType	4	(X/Y/Z)	E:\Qualisys_Data\Carbon_Farble_Plate\Data\Amateur_Runner\S2\T1\S2T1V22_c3d.trc
DataRate	CameraRate	NumFrames	NumMarkers	Units	OrigDataRate	OrigDataStartFrame	OrigNumFrames
200.000000	200.000000	4	39	mm	200.000000	0	327
Frame#	Time	LSHO			RSHO			LICST			RICST			LASIS			LHEEL			RASIS			LTROC			RTROC			SACR			LTH1			LSK4			LTH2			LTH3			RHM5			LSK2			LTH4			RTH1			LTOE			RTH2			RTH3			RTH4			LLEP			RLEP			LSK1			LSK3			RSK1			LHM5			RSK2			LFT1			RSK3			RSK4			LLME			RLME			RTOE			RHEEL			RFT1			RFT2			LFT2			
		X1	Y1	Z1	X2	Y2	Z2	X3	Y3	Z3	X4	Y4	Z4	X5	Y5	Z5	X6	Y6	Z6	X7	Y7	Z7	X8	Y8	Z8	X9	Y9	Z9	X10	Y10	Z10	X11	Y11	Z11	X12	Y12	Z12	X13	Y13	Z13	X14	Y14	Z14	X15	Y15	Z15	X16	Y16	Z16	X17	Y17	Z17	X18	Y18	Z18	X19	Y19	Z19	X20	Y20	Z20	X21	Y21	Z21	X22	Y22	Z22	X23	Y23	Z23	X24	Y24	Z24	X25	Y25	Z25	X26	Y26	Z26	X27	Y27	Z27	X28	Y28	Z28	X29	Y29	Z29	X30	Y30	Z30	X31	Y31	Z31	X32	Y32	Z32	X33	Y33	Z33	X34	Y34	Z34	X35	Y35	Z35	X36	Y36	Z36	X37	Y37	Z37	X38	Y38	Z38	X39	Y39	Z39	

1	0	-3458.501953125	1516.315307617188	-451.8722839355469	-3498.493896484375	1497.526977539062	-151.3296661376953	-3530.0302734375	1053.955810546875	-449.0275573730469	-3517.554443359375	1046.81494140625	-152.0879516601562	-3482.14599609375	996.6323852539062	-437.9972839355469	-4088.31201171875	404.2389831542969	-352.1306457519531	-3463.553955078125	997.1708374023438	-184.5508728027344	-3636.6884765625	965.3693237304688	-447.6521301269531	-3590.771240234375	946.6853637695312	-133.6822204589844	-3618.198486328125	1097.0400390625	-302.1904296875	-3628.504150390625	708.856201171875	-462.5061950683594	-3963.078369140625	498.9364624023438	-436.8259582519531	-3702.70654296875	747.31396484375	-454.8660278320312	-3674.6494140625	617.6582641601562	-446.4204711914062	-3214.8876953125	160.5608215332031	-155.6128692626953	-3883.198486328125	558.3885498046875	-450.2313232421875	-3750.2216796875	659.4080810546875	-435.307373046875	-3373.15966796875	728.3322143554688	-146.3016967773438	-4062.363525390625	161.3358154296875	-383.14111328125	-3443.941650390625	698.6876220703125	-145.9891815185547	-3334.142333984375	637.8646240234375	-167.8198394775391	-3408.48388671875	608.9248657226562	-161.9150543212891	-3745.248779296875	600.2744750976562	-443.0652770996094	-3371.1904296875	582.928466796875	-161.4938812255859	-3836.86572265625	496.5089416503906	-452.7359924316406	-3916.13916015625	435.075927734375	-445.626220703125	-3329.440673828125	461.1012878417969	-155.7889709472656	-4105.18017578125	209.632568359375	-434.119873046875	-3410.306640625	456.3695678710938	-151.36865234375	-4099.77197265625	386.4632568359375	-318.6990966796875	-3324.33740234375	359.6273193359375	-166.923583984375	-3403.831787109375	359.1050720214844	-165.0713195800781	-4075.867431640625	353.1060791015625	-413.9108276367188	-3347.825439453125	170.3478088378906	-196.7497406005859	-3162.62158203125	199.475830078125	-212.1203308105469	-3398.0224609375	139.6474609375	-258.2717590332031	-3371.23779296875	118.7315826416016	-287.3704223632812	-3391.497314453125	111.7689361572266	-232.9163818359375	-4120.36669921875	396.7601013183594	-369.9537658691406
2	0.005	-3438.04248046875	1516.752319335938	-451.3782958984375	-3479.212890625	1497.2861328125	-150.6343841552734	-3509.358642578125	1054.854736328125	-449.2695007324219	-3498.02294921875	1044.796752929688	-152.2517242431641	-3463.306396484375	997.4993896484376	-439.0565490722656	-4072.40087890625	413.3917846679688	-349.6331176757812	-3442.62890625	996.880126953125	-185.6129455566406	-3617.09033203125	964.8238525390624	-449.2043151855469	-3571.36181640625	943.992919921875	-133.8072204589844	-3598.92041015625	1096.783325195312	-302.0304260253906	-3605.89794921875	707.2391967773438	-462.9288635253906	-3943.885009765625	504.8814392089844	-436.2975463867188	-3680.520751953125	746.1712036132812	-456.0413818359375	-3652.38671875	616.5030517578125	-447.2268676757812	-3182.615234375	163.8368530273438	-156.9377136230469	-3863.748779296875	562.6075439453125	-450.8884582519531	-3728.156494140625	658.1727905273438	-436.1742553710938	-3355.1259765625	724.9679565429688	-145.7577056884766	-4051.580810546875	171.6026000976562	-386.4352722167969	-3426.86083984375	695.1892700195312	-144.8032989501953	-3319.271728515625	632.7369384765625	-168.0666351318359	-3391.726806640625	605.6561279296875	-161.7431488037109	-3723.364501953125	599.9353637695312	-444.302490234375	-3356.49462890625	578.8202514648438	-162.8202514648438	-3817.625244140625	497.1451721191406	-454.3561096191406	-3900.14697265625	440.6677551269531	-446.8245239257812	-3308.137451171875	459.881103515625	-156.2418670654297	-4093.947021484375	220.29345703125	-436.7715759277344	-3390.313232421875	451.1358642578125	-149.9295349121094	-4084.20849609375	394.9087829589844	-317.3353576660156	-3300.14013671875	357.9472961425781	-167.4778289794922	-3379.709228515625	354.2308044433594	-164.0002136230469	-4062.161865234375	362.9882507324219	-413.9413757324219	-3316.608154296875	167.7721405029297	-197.4346313476562	-3132.83984375	205.3031463623047	-213.4250946044922				-3337.86181640625	116.1138687133789	-287.6734008789062	-3351.7470703125	109.6871871948242	-232.9723358154297	-4104.1142578125	405.2809143066406	-367.9917907714844
3	0.01	-3417.6259765625	1516.829711914062	-450.3433837890625	-3459.100341796875	1496.07080078125	-149.834228515625	-3490.413330078125	1055.146850585938	-449.7470397949219	-3478.00830078125	1043.960327148438	-153.06298828125	-3443.87255859375	997.6708984375	-439.3653869628906	-4056.42822265625	422.4760437011719	-348.4046630859375	-3424.778564453125	994.635009765625	-186.0464324951172	-3597.38427734375	964.431396484375	-449.8338012695312	-3553.279296875	941.7540893554688	-135.5063629150391	-3579.695556640625	1095.96435546875	-302.0061645507812	-3584.49755859375	706.2225952148438	-463.3050842285156	-3924.70458984375	510.5691833496094	-436.0005493164062	-3659.1728515625	745.2660522460938	-457.7570495605469	-3631.1025390625	615.019287109375	-447.9855651855469	-3152.42626953125	167.1749877929688	-158.4295043945312	-3842.46044921875	565.8338623046875	-450.9389953613281	-3706.456787109375	657.2548217773438	-437.06201171875	-3336.970703125	719.7716674804688	-144.74609375	-4040.611083984375	179.7954254150391	-389.7505187988281	-3409.345458984375	692.250732421875	-144.3875274658203	-3301.544921875	628.173583984375	-168.5840606689453	-3375.70361328125	601.9142456054688	-162.1731719970703	-3700.564453125	597.8978881835938	-445.116455078125	-3339.136962890625	575.291259765625	-162.9481048583984	-3798.84619140625	496.5982971191406	-453.9506225585938	-3883.16650390625	445.2139892578125	-446.724853515625	-3287.761474609375	458.5650329589844	-157.2539978027344	-4082.718505859375	231.8182678222656	-439.9780883789062	-3368.214599609375	447.1235961914062	-147.827392578125	-4070.441650390625	403.0861511230469	-315.8954467773438	-3275.91015625	357.2777099609375	-168.6688690185547	-3355.257568359375	350.7722778320312	-162.9359436035156	-4047.18603515625	372.8689270019531	-412.8600158691406	-3286.446533203125	165.6105804443359	-197.2046356201172	-3104.754638671875	211.1690216064453	-214.3109283447266				-3306.84326171875	114.2900772094727	-288.2400817871094	-3320.035888671875	105.9514465332031	-233.588623046875	-4088.6328125	416.1900634765625	-366.29443359375
4	0.015	-3397.1376953125	1515.759521484375	-449.2917785644531	-3439.652587890625	1494.413208007812	-148.6072845458984	-3471.143798828125	1055.21044921875	-450.1611328125	-3459.082275390625	1041.599853515625	-152.9784393310547	-3423.273193359375	997.7996826171876	-439.8351440429688	-4039.075439453125	431.4147644042969	-346.5649108886719	-3404.0947265625	993.5631713867188	-186.5833892822266	-3577.259521484375	963.272705078125	-450.6026611328125	-3533.362060546875	939.850341796875	-136.8480224609375	-3559.86767578125	1094.906494140625	-301.7262268066406	-3561.81103515625	704.2960815429688	-463.9073791503906	-3905.30419921875	516.345703125	-435.4789428710938	-3635.962890625	741.9169311523438	-458.9443664550781	-3608.148681640625	614.0599365234375	-448.7304382324219	-3123.173828125	169.2626495361328	-158.8825836181641	-3820.78173828125	568.18603515625	-451.0675048828125	-3682.8603515625	653.7813720703125	-438.0164794921875	-3319.77587890625	715.2908935546875	-144.1153717041016	-4027.18115234375	190.2046356201172	-394.7215881347656	-3391.00927734375	688.1141357421875	-142.7603759765625	-3285.381591796875	622.1239013671875	-168.5514068603516	-3360.29736328125	597.8090209960938	-161.7589721679688	-3678.58935546875	595.9369506835938	-446.4219360351562	-3321.5859375	571.5289916992188	-162.6491241455078	-3781.276123046875	501.1929931640625	-456.4543151855469	-3865.8603515625	448.4385070800781	-447.554931640625	-3268.270751953125	457.0679016113281	-158.5654754638672	-4069.58251953125	245.162353515625	-441.8561401367188	-3346.610595703125	444.6974182128906	-147.3256683349609	-4053.272705078125	411.9389343261719	-313.70361328125	-3253.540283203125	356.0042724609375	-169.7674713134766	-3332.240234375	348.3980712890625	-162.5768737792969	-4031.94189453125	383.3765563964844	-412.2709350585938	-3257.36181640625	163.8128204345703	-197.3679504394531	-3078.1357421875	215.4745635986328	-215.6956024169922				-3277.095947265625	112.6416091918945	-288.4331359863281	-3289.781005859375	102.6563873291016	-232.7024383544922	-4071.889404296875	426.567626953125	-364.5617370605469
